<?xml version="1.0" standalone="no"?>
<!DOCTYPE svg PUBLIC "-//W3C//DTD SVG 20010904//EN"
 "http://www.w3.org/TR/2001/REC-SVG-20010904/DTD/svg10.dtd">
<svg version="1.0" xmlns="http://www.w3.org/2000/svg"
 width="1248.000000pt" height="832.000000pt" viewBox="0 0 1248.000000 832.000000"
 preserveAspectRatio="xMidYMid meet">

<g transform="translate(0.000000,832.000000) scale(0.100000,-0.100000)"
fill="#000000" stroke="none">
<path d="M6187 7512 c-7 -236 -15 -269 -83 -308 -28 -16 -44 -33 -44 -45 0
-11 -11 -24 -25 -31 -21 -9 -25 -18 -25 -55 l0 -43 200 0 200 0 0 44 c0 41 -2
45 -30 51 -24 5 -30 12 -30 33 0 20 -8 31 -32 42 -71 34 -87 98 -88 363 0 136
-1 147 -18 147 -18 0 -19 -14 -25 -198z"/>
<path d="M6015 6982 c-3 -3 -5 -25 -5 -49 0 -38 7 -54 46 -105 l46 -60 -6
-176 c-34 -877 -119 -1616 -247 -2142 -33 -134 -130 -446 -164 -522 -7 -17 4
-18 158 -18 l164 0 21 133 c70 441 111 1267 126 2532 l5 411 -69 0 c-38 1 -72
-1 -75 -4z"/>
<path d="M6263 6974 c-7 -19 14 -1275 27 -1664 23 -632 69 -1202 111 -1362
l10 -38 169 0 168 0 -40 103 c-22 56 -56 147 -75 202 -153 444 -263 1268 -313
2340 l-9 210 44 56 c41 52 45 62 45 113 l0 56 -65 0 c-51 0 -67 -4 -72 -16z"/>
<path d="M6190 6593 c-1 -1182 -46 -2179 -119 -2583 l-17 -100 153 0 153 0 -6
28 c-3 15 -8 34 -10 42 -11 45 -45 363 -58 540 -31 421 -39 686 -62 2103 -5
294 -9 357 -20 357 -12 0 -14 -64 -14 -387z"/>
<path d="M5104 5606 c-60 -15 -124 -50 -199 -112 l-54 -44 -33 19 c-56 33
-110 43 -167 30 -94 -20 -151 -78 -170 -172 -13 -65 -3 -113 39 -179 29 -47
30 -52 15 -72 -249 -336 -594 -1000 -709 -1365 -58 -184 -70 -360 -30 -462 27
-70 80 -135 128 -158 99 -49 282 -63 439 -36 359 63 758 373 1040 808 102 158
218 412 267 588 93 333 88 688 -11 914 -29 66 -94 162 -120 175 -18 10 -352
81 -374 79 -5 0 -33 -6 -61 -13z m159 -73 c25 -13 28 -18 14 -21 -20 -4 -117
25 -132 41 -16 16 81 0 118 -20z m-113 -21 l84 -29 -26 -17 c-26 -17 -30 -17
-112 10 -48 16 -86 31 -86 35 0 5 37 27 50 28 3 1 44 -12 90 -27z m381 -33
c22 -18 22 -20 4 -15 -11 2 -35 7 -52 11 -18 4 -33 11 -33 16 0 17 58 9 81
-12z m-717 -24 c42 -28 98 -120 103 -169 5 -37 2 -46 -14 -55 -11 -5 -28 -31
-37 -56 -10 -25 -21 -45 -24 -45 -4 -1 -20 -12 -37 -26 -23 -20 -24 -23 -7
-14 13 6 33 10 44 8 21 -3 21 -3 -4 -32 -24 -29 -25 -29 -74 -17 -27 7 -63 14
-80 17 -41 5 -88 23 -81 30 3 4 20 1 38 -5 18 -6 53 -11 79 -11 60 0 72 21 35
60 -20 21 -32 25 -62 22 -23 -3 -47 -14 -60 -28 -28 -30 -34 -30 -71 1 -40 33
-72 101 -72 151 0 56 42 139 82 164 18 11 35 15 36 10 2 -6 28 -10 57 -10 44
0 54 3 58 20 4 16 10 18 35 11 16 -5 41 -17 56 -26z m336 -36 c0 -4 -11 -14
-25 -23 -23 -15 -29 -14 -107 10 -46 14 -87 29 -91 34 -5 4 3 17 18 28 l26 21
89 -32 c50 -18 90 -35 90 -38z m196 -21 c26 -102 27 -458 1 -598 -77 -415
-269 -834 -538 -1171 -84 -106 -257 -272 -354 -341 -83 -59 -219 -128 -253
-128 -34 0 -97 66 -111 115 -37 133 14 373 139 656 27 62 50 114 50 116 0 2
-7 3 -15 3 -24 0 -17 19 8 26 17 4 36 28 65 82 23 42 50 93 62 112 11 19 37
69 59 110 157 303 425 693 616 898 85 92 214 192 246 192 4 0 15 -33 25 -72z
m244 -6 c9 -20 8 -23 -7 -19 -10 3 -53 13 -95 22 -76 16 -108 34 -108 59 0 9
28 5 99 -13 82 -21 102 -30 111 -49z m-597 -13 l86 -31 -20 -21 c-18 -20 -23
-20 -66 -9 -26 7 -53 18 -61 24 -19 16 -44 68 -33 68 5 0 47 -14 94 -31z m534
-28 c98 -23 103 -26 103 -55 l0 -24 -102 24 c-99 24 -128 40 -128 71 0 9 8 12
23 8 12 -3 59 -14 104 -24z m-558 -62 c17 -6 31 -14 31 -18 0 -13 -56 -61 -63
-54 -7 6 -10 83 -3 83 1 0 17 -5 35 -11z m572 -34 c57 -13 106 -28 110 -32 3
-5 9 -21 13 -37 8 -33 17 -33 -151 5 l-93 21 0 34 c0 19 4 34 9 34 6 0 56 -11
112 -25z m-611 -78 c0 -2 -10 -12 -21 -23 -22 -19 -22 -19 -8 4 12 19 29 30
29 19z m601 -27 c52 -12 106 -24 122 -27 24 -5 27 -10 27 -44 0 -47 5 -46
-145 -16 l-110 23 -3 42 c-2 23 1 42 6 42 4 0 51 -9 103 -20z m-828 -116 c48
-15 87 -30 87 -33 0 -3 -13 -21 -29 -40 l-28 -34 -92 33 c-50 18 -93 36 -96
39 -7 12 47 72 59 67 6 -2 50 -17 99 -32z m927 -27 l55 -12 3 -43 c2 -31 0
-42 -11 -42 -13 0 -175 31 -234 45 -20 5 -23 12 -23 49 l0 44 78 -15 c42 -8
102 -20 132 -26z m-1015 -72 c44 -16 84 -31 88 -35 11 -9 -19 -69 -37 -76 -12
-5 -171 45 -197 62 -12 7 42 86 55 81 6 -2 47 -16 91 -32z m958 -46 l118 -21
-7 -47 c-4 -25 -7 -47 -8 -47 -4 -4 -262 39 -269 45 -4 4 -4 29 -1 55 6 42 9
47 28 42 12 -2 74 -15 139 -27z m-950 -96 c9 -3 17 -7 17 -9 0 -6 -52 -84 -56
-84 -10 0 -181 63 -187 70 -5 4 3 26 17 49 l26 41 82 -31 c46 -17 91 -34 101
-36z m937 -43 c63 -11 115 -20 116 -20 3 0 -14 -91 -17 -95 -4 -3 -281 34
-286 38 -1 1 4 23 10 50 12 56 10 56 177 27z m-1006 -77 c14 -8 12 -14 -10
-47 -14 -20 -31 -36 -37 -33 -7 2 -49 16 -94 32 -46 16 -83 33 -83 39 0 6 9
25 20 43 l19 32 85 -29 c47 -15 92 -32 100 -37z m-136 -85 c45 -17 82 -33 82
-37 0 -19 -42 -71 -57 -71 -20 0 -163 49 -176 60 -5 4 1 27 13 50 16 32 25 40
38 35 9 -4 54 -21 100 -37z m1099 23 c68 -10 125 -20 128 -23 7 -7 -15 -97
-25 -103 -9 -6 -273 26 -282 34 -4 3 0 30 8 59 18 60 6 58 171 33z m-1191
-131 c49 -17 94 -32 101 -35 18 -6 -28 -85 -49 -85 -9 0 -50 12 -90 26 -40 14
-79 28 -86 30 -9 2 -6 16 10 49 12 25 22 45 23 45 1 0 41 -14 91 -30z m1146
-21 c64 -7 122 -15 129 -19 8 -6 7 -20 -6 -59 -16 -49 -18 -51 -53 -51 -47 1
-252 26 -258 32 -3 4 6 38 31 106 3 7 13 11 22 8 10 -3 71 -10 135 -17z
m-1189 -105 c48 -15 87 -31 87 -35 0 -8 -40 -79 -44 -79 -4 0 -139 47 -168 58
l-27 11 22 41 c12 22 27 38 32 36 6 -2 49 -16 98 -32z m1142 -53 c143 -19 137
-15 105 -88 -17 -40 -22 -43 -57 -43 -40 0 -188 16 -235 26 l-26 5 26 60 c16
37 31 59 41 58 9 0 75 -8 146 -18z m-1119 -91 c2 0 -5 -18 -16 -41 -12 -22
-27 -39 -33 -36 -7 2 -49 16 -94 31 -46 15 -83 32 -83 36 0 5 7 25 16 44 l17
34 94 -34 c52 -19 96 -34 99 -34z m-164 -76 c123 -39 121 -37 97 -79 -12 -19
-28 -35 -37 -35 -16 0 -172 49 -181 56 -4 4 29 84 35 84 2 0 40 -12 86 -26z
m1223 5 c66 -7 121 -13 123 -15 5 -4 -47 -102 -58 -109 -8 -5 -279 21 -286 28
-2 1 9 28 24 60 24 51 29 57 52 53 14 -3 79 -11 145 -17z m-1264 -124 c41 -14
79 -27 86 -30 10 -3 9 -12 -1 -37 -8 -18 -19 -34 -25 -36 -13 -4 -179 46 -184
56 -7 13 23 72 36 72 8 0 47 -11 88 -25z m1179 -30 c68 -9 125 -17 127 -18 7
-8 -64 -107 -77 -107 -26 0 -264 31 -268 34 -2 2 9 27 25 55 32 59 22 57 193
36z m-1218 -82 c86 -26 89 -27 83 -52 -11 -45 -20 -46 -117 -21 -51 13 -95 24
-96 26 -7 5 22 74 32 74 5 0 49 -12 98 -27z m1121 -67 c65 -7 120 -16 124 -19
7 -7 -64 -97 -77 -97 -21 0 -218 21 -241 26 l-27 5 32 49 c35 56 27 54 189 36z
m-1103 -56 c20 -5 25 -13 23 -35 -1 -15 -4 -30 -7 -32 -6 -7 -195 38 -201 47
-3 4 0 21 6 38 l10 30 72 -20 c40 -12 83 -24 97 -28z m-92 -82 c93 -22 105
-32 83 -67 -13 -20 -215 25 -206 46 3 8 5 21 5 29 0 19 9 18 118 -8z m1080 -2
c68 -8 126 -16 129 -19 3 -3 -12 -26 -32 -51 -27 -34 -45 -46 -64 -46 -28 0
-233 28 -237 33 -4 4 67 97 74 97 4 0 62 -7 130 -14z m-1101 -92 c85 -17 92
-20 87 -39 -3 -11 -9 -23 -13 -26 -6 -7 -190 27 -199 36 -9 9 9 57 21 52 7 -2
54 -13 104 -23z m1006 -46 c59 -6 107 -14 107 -18 0 -3 -17 -23 -39 -44 l-39
-38 -93 11 c-52 6 -106 14 -121 17 l-28 6 33 39 c36 44 33 43 180 27z m-986
-48 c52 -11 61 -21 44 -49 -8 -13 -23 -12 -110 4 -91 17 -101 20 -101 40 0 12
2 24 5 27 6 5 74 -4 162 -22z m866 -71 c59 -7 107 -15 107 -18 -1 -15 -76 -61
-100 -61 -34 0 -194 21 -199 26 -8 7 63 75 74 70 5 -2 58 -9 118 -17z m-893
-13 c57 -10 65 -14 68 -35 4 -22 2 -23 -46 -16 -27 3 -73 12 -103 18 -45 10
-55 16 -57 36 -4 22 -2 23 35 16 21 -4 67 -13 103 -19z m-26 -74 c75 -14 90
-21 97 -39 10 -28 14 -28 -106 -3 -53 11 -99 20 -101 20 -2 0 -4 9 -4 20 0 24
0 24 114 2z m821 -15 l80 -12 -38 -29 -38 -29 -99 13 c-55 7 -100 15 -100 18
0 3 10 16 22 29 25 26 50 28 173 10z m-812 -64 c75 -13 101 -21 108 -36 6 -10
9 -20 7 -22 -3 -3 -141 19 -185 30 -21 5 -53 45 -36 45 4 0 52 -7 106 -17z
m740 -32 c18 -7 17 -9 -8 -25 -28 -18 -64 -18 -189 1 l-39 6 24 19 c21 16 35
18 109 12 46 -3 93 -9 103 -13z m-670 -52 c43 -6 80 -16 83 -20 7 -11 -4 -11
-91 1 -102 15 -125 20 -125 32 0 5 12 7 28 4 15 -3 62 -10 105 -17z m545 -16
c24 -6 24 -6 -9 -20 -25 -11 -53 -13 -109 -8 -89 8 -99 13 -68 31 23 13 128
12 186 -3z m-200 -49 c63 -8 69 -24 8 -24 -58 0 -107 10 -100 21 6 11 21 11
92 3z m-145 -41 c-7 -2 -21 -2 -30 0 -10 3 -4 5 12 5 17 0 24 -2 18 -5z"/>
<path d="M4733 5348 l-20 -33 25 -37 c21 -32 28 -37 51 -31 14 3 30 6 36 6 7
0 11 22 10 54 0 49 -2 53 -29 63 -44 15 -53 13 -73 -22z"/>
<path d="M4549 5350 c-22 -17 -25 -24 -20 -62 5 -38 10 -44 41 -54 l35 -12 17
46 18 46 -27 28 c-31 33 -31 33 -64 8z"/>
<path d="M7175 4949 c-137 -21 -265 -76 -409 -176 -129 -90 -186 -141 -186
-169 0 -30 5 -30 48 3 l35 27 64 -67 c34 -37 63 -71 63 -77 0 -5 -16 -21 -35
-35 l-34 -27 -45 38 c-25 21 -48 44 -50 51 -3 7 -10 13 -16 13 -21 0 -9 -30
30 -75 22 -25 40 -50 40 -54 0 -4 -9 -16 -20 -26 -18 -16 -20 -46 -4 -64 2 -2
49 37 106 87 169 148 293 231 437 292 130 56 301 78 347 46 24 -17 76 -127
100 -211 25 -91 30 -326 9 -459 -49 -313 -221 -681 -425 -909 l-52 -57 -50 65
c-81 108 -164 241 -224 361 l-56 114 -195 0 -195 0 6 -37 c13 -75 79 -265 120
-346 23 -45 76 -134 118 -197 42 -63 93 -150 114 -192 l39 -77 313 -3 313 -3
-43 37 -43 38 31 27 c17 16 67 59 112 97 120 102 251 256 324 382 24 40 45 73
48 74 3 0 25 -39 50 -88 85 -167 183 -233 350 -236 150 -2 272 59 357 179 107
152 130 350 52 440 -25 28 -39 35 -85 41 -80 10 -102 -4 -164 -99 -66 -102
-158 -223 -197 -260 l-30 -28 -30 68 c-36 78 -103 275 -103 301 0 11 16 24 45
35 27 12 66 42 100 78 69 75 89 137 83 249 -5 93 -39 161 -110 225 -59 53
-121 75 -209 75 l-67 0 -22 53 c-46 107 -104 193 -184 272 -65 64 -100 90
-176 128 -141 70 -270 95 -395 76z m91 -106 l42 -62 -30 -10 c-17 -6 -32 -11
-34 -11 -2 0 -24 30 -49 68 -44 66 -45 67 -23 74 40 11 51 4 94 -59z m71 52
c23 -16 63 -75 63 -94 0 -6 -13 -11 -30 -11 -22 0 -34 7 -46 28 -9 15 -25 39
-35 54 -11 15 -19 30 -19 33 0 11 47 4 67 -10z m-179 -74 c23 -32 42 -63 42
-68 0 -8 -42 -33 -55 -33 -7 0 -105 130 -105 139 0 12 18 19 50 20 19 0 35
-13 68 -58z m311 5 l24 -26 -24 0 c-17 0 -30 10 -42 29 -9 16 -17 32 -17 35 0
11 34 -11 59 -38z m-417 -49 l56 -72 -31 -17 c-18 -9 -35 -17 -39 -18 -9 0
-122 139 -117 144 7 6 64 35 69 35 3 0 30 -32 62 -72z m549 22 c23 -11 39 -23
36 -25 -7 -7 -73 22 -81 35 -10 16 -1 14 45 -10z m-656 -80 l59 -72 -30 -23
c-16 -13 -34 -24 -41 -24 -11 0 -123 128 -123 141 0 7 60 49 71 49 3 0 31 -32
64 -71z m-111 -68 c31 -39 56 -73 56 -76 0 -9 -54 -54 -65 -55 -12 0 -125 124
-125 138 0 7 68 62 76 62 1 0 27 -31 58 -69z m879 38 c49 -25 48 -42 -2 -24
-55 19 -81 34 -81 46 0 12 30 4 83 -22z m37 -82 c45 -17 67 -32 82 -56 11 -17
18 -34 16 -36 -2 -3 -39 7 -82 21 -60 21 -79 32 -87 51 -19 51 -15 52 71 20z
m47 -122 c61 -23 103 -53 103 -75 0 -23 -153 -11 -177 14 -3 3 -9 23 -13 46
-9 49 -5 49 87 15z m369 -115 c84 -48 149 -145 160 -242 5 -47 3 -56 -18 -79
-31 -33 -70 -136 -54 -143 15 -7 -61 -75 -109 -97 -68 -32 -129 -25 -232 25
-97 47 -126 75 -165 162 -15 34 -22 69 -23 115 0 56 5 76 35 135 46 89 150
172 150 119 0 -12 14 -15 66 -15 59 0 68 3 86 25 25 32 42 31 104 -5z m-373
-10 c15 0 14 -5 -10 -35 -38 -47 -53 -45 -53 6 0 38 2 41 23 35 12 -3 30 -6
40 -6z m-56 -112 c-3 -8 -6 -5 -6 6 -1 11 2 17 5 13 3 -3 4 -12 1 -19z m15
-300 c20 -42 19 -42 -35 -27 -25 7 -37 15 -34 23 3 8 9 35 13 62 l7 49 15 -35
c9 -19 24 -52 34 -72z m36 -141 c7 -15 26 -64 42 -110 16 -45 32 -90 35 -100
8 -18 3 -17 -206 62 l-55 21 33 97 c18 54 33 99 33 100 0 2 24 -8 53 -20 33
-15 57 -33 65 -50z m153 -37 c22 0 22 1 8 -56 -9 -35 -16 -44 -34 -44 -17 0
-27 12 -47 64 l-26 64 40 -14 c23 -8 49 -14 59 -14z m127 -56 c7 -26 11 -48 9
-51 -3 -2 -23 -1 -47 3 l-42 7 7 36 c9 47 12 51 39 51 18 0 24 -9 34 -46z
m607 6 c14 -6 4 -9 -37 -9 -33 -1 -58 3 -58 9 0 12 67 12 95 0z m-127 -55 c-3
-3 -13 -2 -22 1 -14 5 -15 9 -4 15 13 8 36 -6 26 -16z m167 6 c3 -5 1 -12 -4
-15 -14 -9 -121 5 -121 15 0 12 117 11 125 0z m-921 -107 c43 -16 81 -34 83
-41 6 -15 -37 -110 -63 -140 l-19 -22 -143 43 c-78 24 -144 45 -146 47 -2 2
16 45 40 96 l43 92 63 -23 c35 -13 98 -36 142 -52z m126 60 c0 -8 -5 -12 -10
-9 -6 4 -8 11 -5 16 9 14 15 11 15 -7z m617 10 c36 -10 16 -34 -28 -34 -40 0
-48 7 -27 28 13 13 23 14 55 6z m-469 -10 c26 -5 34 -14 46 -51 l16 -46 -83 7
c-45 4 -86 11 -91 16 -4 4 -2 24 5 44 11 31 17 36 45 36 17 0 45 -3 62 -6z
m628 -4 c27 0 34 -4 34 -20 0 -18 -7 -20 -70 -20 -61 0 -70 2 -70 18 0 27 11
34 44 28 16 -3 44 -6 62 -6z m-146 -57 c-1 -26 -20 -36 -64 -31 -52 6 -61 11
-51 27 7 12 115 15 115 4z m170 -33 c0 -18 -7 -20 -70 -20 -63 0 -70 2 -70 20
0 18 7 20 70 20 63 0 70 -2 70 -20z m-603 -39 c13 -1 29 -14 42 -36 l20 -35
-37 0 c-20 0 -68 3 -106 7 -66 6 -69 7 -82 39 -8 18 -14 35 -14 36 0 2 35 0
78 -4 42 -3 87 -7 99 -7z m410 5 c1 -1 0 -11 -3 -21 -4 -18 -12 -20 -79 -17
-41 2 -75 6 -75 10 0 3 8 14 17 25 16 16 26 18 78 12 33 -3 61 -8 62 -9z m183
-28 c-1 -31 -15 -36 -83 -31 -57 5 -67 9 -67 24 0 17 9 19 75 19 53 0 75 -4
75 -12z m-200 -45 c-1 -25 -20 -30 -108 -25 -77 4 -90 7 -81 18 8 10 37 14
100 14 49 0 89 -3 89 -7z m-870 -58 c69 -21 127 -40 129 -41 5 -4 -24 -50 -65
-100 l-34 -42 -136 29 c-76 15 -143 30 -151 33 -9 4 3 29 40 86 41 63 56 80
72 77 11 -3 76 -21 145 -42z m1035 33 c3 -3 3 -13 -1 -22 -5 -12 -19 -16 -63
-16 -65 0 -85 9 -75 34 6 15 17 18 70 14 35 -2 66 -6 69 -10z m-545 -14 c57
-6 67 -10 78 -32 l11 -25 -100 5 c-83 4 -102 8 -114 24 -8 10 -15 22 -15 27 0
9 52 9 140 1z m340 -32 c0 -13 -53 -83 -82 -110 l-26 -23 -34 43 c-20 24 -43
55 -53 71 l-17 27 106 0 c58 0 106 -4 106 -8z m169 -28 c3 -2 -1 -10 -7 -16
-10 -10 -131 -13 -141 -3 -2 3 2 12 10 21 11 13 24 15 74 9 33 -3 62 -9 64
-11z m-387 -41 c5 -2 12 -12 17 -21 8 -16 3 -17 -62 -14 -108 4 -136 11 -148
34 -11 20 -10 20 87 13 55 -4 102 -9 106 -12z m328 -22 c0 -5 -7 -11 -15 -15
-22 -8 -106 5 -99 15 7 12 114 12 114 0z m-261 -61 c12 -6 11 -9 -5 -13 -77
-23 -147 -15 -176 20 -12 15 -5 15 77 9 49 -4 96 -11 104 -16z m-831 -19 c73
-16 136 -32 140 -36 4 -3 -16 -29 -45 -56 -44 -41 -57 -49 -90 -49 -48 1 -252
26 -259 33 -5 5 106 137 115 137 3 0 66 -14 139 -29z m1009 18 c-12 -7 -27 -7
-45 0 -25 9 -24 9 18 10 36 0 41 -2 27 -10z m-94 -46 c-7 -2 -21 -2 -30 0 -10
3 -4 5 12 5 17 0 24 -2 18 -5z m-1020 -144 l88 -11 -23 -25 c-12 -13 -38 -34
-56 -45 l-34 -21 -61 62 c-59 60 -61 63 -32 57 17 -2 70 -10 118 -17z"/>
<path d="M8078 4220 c-21 -37 -34 -50 -55 -53 l-28 -4 26 -2 c21 -1 35 -13 59
-52 20 -29 38 -48 46 -45 7 3 31 10 53 16 32 8 41 16 46 41 4 17 4 50 0 74 -5
38 -10 45 -38 53 -80 25 -80 25 -109 -28z"/>
<path d="M7812 4224 c-36 -25 -44 -50 -37 -118 l7 -63 47 -9 46 -9 26 65 27
65 -30 42 c-31 46 -51 52 -86 27z"/>
<path d="M8000 3941 c-40 -5 -46 -9 -51 -36 -11 -53 -10 -60 20 -78 45 -26
101 -22 140 11 l32 27 -36 43 c-20 23 -42 41 -48 40 -7 0 -32 -4 -57 -7z"/>
<path d="M5500 3853 c0 -5 12 -43 27 -85 l26 -78 652 0 652 0 26 78 c15 42 27
80 27 85 0 4 -317 7 -705 7 -388 0 -705 -3 -705 -7z"/>
<path d="M5502 3518 c-110 -224 -277 -455 -462 -637 l-105 -104 40 6 c22 4
162 7 310 7 l270 0 35 67 c19 37 75 128 124 202 49 75 108 177 131 226 43 90
97 247 110 318 l7 37 -200 0 -199 0 -61 -122z"/>
<path d="M6023 3632 c-6 -4 -18 -35 -27 -69 -23 -87 -70 -219 -111 -309 l-34
-75 29 21 c79 56 257 97 373 85 83 -8 204 -44 266 -80 24 -14 41 -19 38 -13
-3 7 -24 57 -46 110 -23 53 -56 150 -75 215 l-34 118 -184 2 c-100 2 -188 0
-195 -5z"/>
<path d="M6485 2522 c-70 -33 -80 -64 -80 -237 0 -137 2 -153 22 -185 30 -48
57 -62 127 -67 103 -7 161 39 177 138 5 29 7 54 6 55 -1 0 -26 4 -54 7 l-53 6
0 -38 c0 -44 -31 -91 -60 -91 -10 0 -28 12 -39 26 -19 24 -21 40 -21 150 0
114 2 125 23 150 41 47 97 11 97 -61 0 -24 3 -25 55 -25 l55 0 -7 48 c-12 98
-48 132 -146 139 -47 3 -72 -1 -102 -15z"/>
<path d="M7833 2529 c-72 -21 -110 -116 -78 -197 19 -47 30 -55 125 -92 80
-32 103 -63 77 -104 -35 -53 -117 -24 -117 41 0 21 -5 23 -50 23 l-50 0 0 -37
c0 -83 62 -133 165 -133 97 0 144 32 166 113 22 83 -22 148 -126 187 -70 25
-95 45 -95 75 0 27 29 55 57 55 25 0 53 -30 53 -58 0 -20 5 -22 51 -22 l52 0
-6 45 c-2 25 -13 55 -23 67 -39 44 -124 59 -201 37z"/>
<path d="M4370 2285 l0 -245 140 0 140 0 0 45 0 45 -85 0 -85 0 0 200 0 200
-55 0 -55 0 0 -245z"/>
<path d="M4700 2285 l0 -245 150 0 150 0 0 45 0 45 -95 0 -95 0 0 55 0 55 80
0 80 0 0 45 0 45 -80 0 -80 0 0 55 0 55 95 0 95 0 0 45 0 45 -150 0 -150 0 0
-245z"/>
<path d="M5230 2285 l0 -245 50 0 50 0 0 89 0 88 70 5 c114 9 155 50 155 158
0 122 -41 150 -215 150 l-110 0 0 -245z m198 143 c6 -6 12 -27 12 -47 0 -49
-17 -68 -62 -73 l-38 -4 0 74 0 74 38 -7 c20 -4 43 -11 50 -17z"/>
<path d="M5671 2498 c-10 -31 -111 -443 -111 -453 0 -3 25 -5 55 -5 37 0 55 4
55 13 0 6 5 29 11 50 l10 37 64 0 c45 0 65 -4 65 -12 0 -7 5 -30 11 -50 10
-38 10 -38 64 -38 35 0 55 4 55 12 0 9 -26 111 -111 441 l-10 37 -74 0 -73 0
-11 -32z m106 -173 c10 -52 17 -97 15 -100 -3 -3 -23 -5 -45 -5 -39 0 -39 0
-33 33 4 17 12 62 18 100 7 37 15 67 18 67 4 0 16 -43 27 -95z"/>
<path d="M6000 2285 l0 -245 55 0 55 0 0 100 0 100 34 0 c53 0 66 -8 66 -45 0
-17 3 -60 6 -94 l7 -61 58 0 58 0 -4 33 c-2 17 -7 64 -9 102 -5 61 -9 73 -33
92 -16 13 -22 23 -15 23 7 0 21 15 32 33 24 39 26 106 5 147 -26 50 -60 60
-195 60 l-120 0 0 -245z m201 144 c16 -16 20 -28 15 -52 -9 -44 -24 -57 -67
-57 l-39 0 0 65 0 65 35 0 c22 0 43 -8 56 -21z"/>
<path d="M6970 2286 l0 -246 113 0 c124 0 164 12 201 63 18 25 21 46 24 156 4
147 -6 195 -48 236 -31 30 -33 30 -161 33 l-129 4 0 -246z m214 132 c21 -30
22 -204 2 -252 -12 -28 -20 -34 -52 -38 -22 -3 -42 -3 -46 -1 -5 2 -8 74 -8
159 l0 154 44 0 c35 0 48 -5 60 -22z"/>
<path d="M7390 2285 l0 -246 147 3 147 3 1 43 1 42 -93 0 -93 0 0 55 0 55 80
0 80 0 0 45 0 45 -80 0 -80 0 0 55 0 55 96 0 97 0 -7 31 c-3 17 -6 38 -6 45 0
11 -29 14 -145 14 l-145 0 0 -245z"/>
<path d="M4535 1972 c-75 -3 -72 -1 -128 -89 -6 -10 5 -13 48 -13 54 0 59 2
108 49 29 27 50 51 47 53 -3 2 -36 2 -75 0z"/>
<path d="M5045 1821 c-45 -12 -107 -46 -132 -73 -33 -35 -70 -125 -84 -202
-17 -98 -7 -354 17 -424 38 -114 128 -176 253 -176 76 0 122 20 162 67 l27 31
7 -42 7 -42 64 0 64 0 0 230 0 230 -145 0 -145 0 0 -70 0 -70 50 0 c48 0 50
-1 50 -27 -1 -50 -18 -104 -41 -129 -32 -34 -97 -34 -132 2 -34 34 -42 85 -41
269 1 202 20 264 89 281 64 16 106 -25 115 -110 l5 -51 75 -3 c116 -5 120 -2
113 61 -13 111 -61 189 -139 227 -49 24 -184 36 -239 21z"/>
<path d="M8391 1815 c-122 -34 -181 -118 -181 -256 0 -133 49 -190 213 -248
48 -17 100 -37 117 -46 61 -31 65 -120 7 -155 -80 -49 -167 1 -167 95 l0 35
-90 0 -90 0 0 -59 c0 -81 39 -155 100 -193 62 -38 169 -54 258 -38 116 20 189
77 217 172 39 132 -5 248 -114 303 -18 9 -77 32 -130 52 -53 19 -104 41 -113
50 -26 23 -33 75 -14 111 18 35 33 42 87 42 55 0 89 -34 89 -90 l0 -40 96 0
97 0 -7 53 c-14 105 -63 173 -146 202 -66 24 -165 28 -229 10z"/>
<path d="M3660 1385 l0 -425 245 0 245 0 0 85 0 85 -145 0 -145 0 0 340 0 340
-100 0 -100 0 0 -425z"/>
<path d="M4220 1385 l0 -425 265 0 265 0 0 85 0 85 -165 0 -165 0 0 95 0 96
138 -2 137 -1 3 81 3 81 -141 0 -140 0 0 85 0 85 165 0 165 0 0 80 0 80 -265
0 -265 0 0 -425z"/>
<path d="M5540 1385 l0 -425 265 0 265 0 0 85 0 85 -165 0 -165 0 0 95 0 95
135 0 135 0 0 80 0 80 -135 0 -135 0 0 85 0 85 160 0 160 0 0 80 0 80 -260 0
-260 0 0 -425z"/>
<path d="M6162 1388 l3 -423 93 -3 92 -3 1 253 1 253 43 -90 c25 -49 77 -163
116 -253 l73 -163 95 3 96 3 3 423 2 422 -95 0 -95 0 -2 -236 -3 -236 -95 212
c-52 117 -99 223 -104 236 -10 23 -13 24 -118 24 l-108 0 2 -422z"/>
<path d="M6890 1416 c0 -216 3 -408 6 -426 l7 -32 196 4 c217 4 247 12 309 71
42 40 66 87 81 157 15 70 15 339 1 408 -21 96 -94 178 -179 202 -20 5 -123 10
-228 10 l-193 0 0 -394z m372 205 c32 -36 43 -126 36 -295 -8 -166 -38 -206
-158 -206 l-50 0 0 263 c0 145 3 267 8 271 4 5 36 6 72 2 55 -5 69 -10 92 -35z"/>
<path d="M7602 1388 l3 -423 263 -3 262 -2 0 85 0 85 -165 0 -165 0 0 95 0 95
135 0 135 0 0 80 0 80 -135 0 -135 0 0 85 0 85 160 0 160 0 0 80 0 80 -260 0
-260 0 2 -422z"/>
</g>
</svg>
